<mxfile host="Electron" agent="Mozilla/5.0 (Windows NT 10.0; Win64; x64) AppleWebKit/537.36 (KHTML, like Gecko) draw.io/27.0.9 Chrome/134.0.6998.205 Electron/35.4.0 Safari/537.36" version="27.0.9">
  <diagram name="Page-1" id="IEqFImMJ9yV_7hRlY2gj">
    <mxGraphModel dx="772" dy="549" grid="1" gridSize="10" guides="1" tooltips="1" connect="1" arrows="1" fold="1" page="1" pageScale="1" pageWidth="850" pageHeight="1100" math="0" shadow="0">
      <root>
        <mxCell id="0" />
        <mxCell id="1" parent="0" />
        <mxCell id="piKvXbmp4SoKNcqQ3Z4D-1" value="user" style="swimlane;fontStyle=0;childLayout=stackLayout;horizontal=1;startSize=26;fillColor=none;horizontalStack=0;resizeParent=1;resizeParentMax=0;resizeLast=0;collapsible=1;marginBottom=0;whiteSpace=wrap;html=1;" vertex="1" parent="1">
          <mxGeometry x="285" y="30" width="140" height="76" as="geometry" />
        </mxCell>
        <mxCell id="piKvXbmp4SoKNcqQ3Z4D-2" value="- name:String" style="text;strokeColor=none;fillColor=none;align=left;verticalAlign=top;spacingLeft=4;spacingRight=4;overflow=hidden;rotatable=0;points=[[0,0.5],[1,0.5]];portConstraint=eastwest;whiteSpace=wrap;html=1;" vertex="1" parent="piKvXbmp4SoKNcqQ3Z4D-1">
          <mxGeometry y="26" width="140" height="24" as="geometry" />
        </mxCell>
        <mxCell id="piKvXbmp4SoKNcqQ3Z4D-3" value="-email:string" style="text;strokeColor=none;fillColor=none;align=left;verticalAlign=top;spacingLeft=4;spacingRight=4;overflow=hidden;rotatable=0;points=[[0,0.5],[1,0.5]];portConstraint=eastwest;whiteSpace=wrap;html=1;" vertex="1" parent="piKvXbmp4SoKNcqQ3Z4D-1">
          <mxGeometry y="50" width="140" height="26" as="geometry" />
        </mxCell>
        <mxCell id="piKvXbmp4SoKNcqQ3Z4D-5" value="profile" style="swimlane;fontStyle=0;childLayout=stackLayout;horizontal=1;startSize=26;fillColor=none;horizontalStack=0;resizeParent=1;resizeParentMax=0;resizeLast=0;collapsible=1;marginBottom=0;whiteSpace=wrap;html=1;" vertex="1" parent="1">
          <mxGeometry x="285" y="150" width="140" height="52" as="geometry" />
        </mxCell>
        <mxCell id="piKvXbmp4SoKNcqQ3Z4D-7" value="- budget:double" style="text;strokeColor=none;fillColor=none;align=left;verticalAlign=top;spacingLeft=4;spacingRight=4;overflow=hidden;rotatable=0;points=[[0,0.5],[1,0.5]];portConstraint=eastwest;whiteSpace=wrap;html=1;" vertex="1" parent="piKvXbmp4SoKNcqQ3Z4D-5">
          <mxGeometry y="26" width="140" height="26" as="geometry" />
        </mxCell>
        <mxCell id="piKvXbmp4SoKNcqQ3Z4D-17" value="" style="edgeStyle=orthogonalEdgeStyle;rounded=0;orthogonalLoop=1;jettySize=auto;html=1;" edge="1" parent="1" source="piKvXbmp4SoKNcqQ3Z4D-10" target="piKvXbmp4SoKNcqQ3Z4D-15">
          <mxGeometry relative="1" as="geometry" />
        </mxCell>
        <mxCell id="piKvXbmp4SoKNcqQ3Z4D-10" value="travel assistance" style="swimlane;fontStyle=0;childLayout=stackLayout;horizontal=1;startSize=26;fillColor=none;horizontalStack=0;resizeParent=1;resizeParentMax=0;resizeLast=0;collapsible=1;marginBottom=0;whiteSpace=wrap;html=1;" vertex="1" parent="1">
          <mxGeometry x="280" y="230" width="160" height="90" as="geometry" />
        </mxCell>
        <mxCell id="piKvXbmp4SoKNcqQ3Z4D-11" value="-enterbudget(b:double)&lt;div&gt;-displayrecomendations()&lt;/div&gt;&lt;div&gt;-saveprofile(p:Profile)&lt;/div&gt;" style="text;strokeColor=none;fillColor=none;align=left;verticalAlign=top;spacingLeft=4;spacingRight=4;overflow=hidden;rotatable=0;points=[[0,0.5],[1,0.5]];portConstraint=eastwest;whiteSpace=wrap;html=1;" vertex="1" parent="piKvXbmp4SoKNcqQ3Z4D-10">
          <mxGeometry y="26" width="160" height="64" as="geometry" />
        </mxCell>
        <mxCell id="piKvXbmp4SoKNcqQ3Z4D-31" value="" style="rounded=0;orthogonalLoop=1;jettySize=auto;html=1;entryX=0.5;entryY=0;entryDx=0;entryDy=0;" edge="1" parent="1" source="piKvXbmp4SoKNcqQ3Z4D-15" target="piKvXbmp4SoKNcqQ3Z4D-24">
          <mxGeometry relative="1" as="geometry" />
        </mxCell>
        <mxCell id="piKvXbmp4SoKNcqQ3Z4D-15" value="hotel" style="swimlane;fontStyle=0;childLayout=stackLayout;horizontal=1;startSize=26;fillColor=none;horizontalStack=0;resizeParent=1;resizeParentMax=0;resizeLast=0;collapsible=1;marginBottom=0;whiteSpace=wrap;html=1;" vertex="1" parent="1">
          <mxGeometry x="520" y="230" width="160" height="90" as="geometry" />
        </mxCell>
        <mxCell id="piKvXbmp4SoKNcqQ3Z4D-16" value="-name:String&lt;div&gt;-location:String&lt;/div&gt;&lt;div&gt;-price:double&lt;/div&gt;" style="text;strokeColor=none;fillColor=none;align=left;verticalAlign=top;spacingLeft=4;spacingRight=4;overflow=hidden;rotatable=0;points=[[0,0.5],[1,0.5]];portConstraint=eastwest;whiteSpace=wrap;html=1;" vertex="1" parent="piKvXbmp4SoKNcqQ3Z4D-15">
          <mxGeometry y="26" width="160" height="64" as="geometry" />
        </mxCell>
        <mxCell id="piKvXbmp4SoKNcqQ3Z4D-30" value="" style="edgeStyle=orthogonalEdgeStyle;rounded=0;orthogonalLoop=1;jettySize=auto;html=1;" edge="1" parent="1" source="piKvXbmp4SoKNcqQ3Z4D-18" target="piKvXbmp4SoKNcqQ3Z4D-28">
          <mxGeometry relative="1" as="geometry" />
        </mxCell>
        <mxCell id="piKvXbmp4SoKNcqQ3Z4D-18" value="recomendation" style="swimlane;fontStyle=0;childLayout=stackLayout;horizontal=1;startSize=26;fillColor=none;horizontalStack=0;resizeParent=1;resizeParentMax=0;resizeLast=0;collapsible=1;marginBottom=0;whiteSpace=wrap;html=1;" vertex="1" parent="1">
          <mxGeometry x="285" y="380" width="140" height="80" as="geometry" />
        </mxCell>
        <mxCell id="piKvXbmp4SoKNcqQ3Z4D-19" value="+getAvailablehotels&lt;div&gt;+getprices&lt;/div&gt;" style="text;strokeColor=none;fillColor=none;align=left;verticalAlign=top;spacingLeft=4;spacingRight=4;overflow=hidden;rotatable=0;points=[[0,0.5],[1,0.5]];portConstraint=eastwest;whiteSpace=wrap;html=1;" vertex="1" parent="piKvXbmp4SoKNcqQ3Z4D-18">
          <mxGeometry y="26" width="140" height="54" as="geometry" />
        </mxCell>
        <mxCell id="piKvXbmp4SoKNcqQ3Z4D-20" value="recomendation" style="swimlane;fontStyle=0;childLayout=stackLayout;horizontal=1;startSize=26;fillColor=none;horizontalStack=0;resizeParent=1;resizeParentMax=0;resizeLast=0;collapsible=1;marginBottom=0;whiteSpace=wrap;html=1;" vertex="1" parent="1">
          <mxGeometry x="70" y="380" width="140" height="52" as="geometry" />
        </mxCell>
        <mxCell id="piKvXbmp4SoKNcqQ3Z4D-21" value="+generate(loc:Str)" style="text;strokeColor=none;fillColor=none;align=left;verticalAlign=top;spacingLeft=4;spacingRight=4;overflow=hidden;rotatable=0;points=[[0,0.5],[1,0.5]];portConstraint=eastwest;whiteSpace=wrap;html=1;" vertex="1" parent="piKvXbmp4SoKNcqQ3Z4D-20">
          <mxGeometry y="26" width="140" height="26" as="geometry" />
        </mxCell>
        <mxCell id="piKvXbmp4SoKNcqQ3Z4D-22" value="review" style="swimlane;fontStyle=0;childLayout=stackLayout;horizontal=1;startSize=26;fillColor=none;horizontalStack=0;resizeParent=1;resizeParentMax=0;resizeLast=0;collapsible=1;marginBottom=0;whiteSpace=wrap;html=1;" vertex="1" parent="1">
          <mxGeometry x="60" y="480" width="140" height="52" as="geometry" />
        </mxCell>
        <mxCell id="piKvXbmp4SoKNcqQ3Z4D-23" value="-text:String" style="text;strokeColor=none;fillColor=none;align=left;verticalAlign=top;spacingLeft=4;spacingRight=4;overflow=hidden;rotatable=0;points=[[0,0.5],[1,0.5]];portConstraint=eastwest;whiteSpace=wrap;html=1;" vertex="1" parent="piKvXbmp4SoKNcqQ3Z4D-22">
          <mxGeometry y="26" width="140" height="26" as="geometry" />
        </mxCell>
        <mxCell id="piKvXbmp4SoKNcqQ3Z4D-24" value="hotelDetails" style="swimlane;fontStyle=0;childLayout=stackLayout;horizontal=1;startSize=26;fillColor=none;horizontalStack=0;resizeParent=1;resizeParentMax=0;resizeLast=0;collapsible=1;marginBottom=0;whiteSpace=wrap;html=1;" vertex="1" parent="1">
          <mxGeometry x="530" y="394" width="140" height="80" as="geometry" />
        </mxCell>
        <mxCell id="piKvXbmp4SoKNcqQ3Z4D-25" value="+writeReview(Rev)&lt;div&gt;+makeBooking()&lt;/div&gt;&lt;div&gt;+save&lt;/div&gt;" style="text;strokeColor=none;fillColor=none;align=left;verticalAlign=top;spacingLeft=4;spacingRight=4;overflow=hidden;rotatable=0;points=[[0,0.5],[1,0.5]];portConstraint=eastwest;whiteSpace=wrap;html=1;" vertex="1" parent="piKvXbmp4SoKNcqQ3Z4D-24">
          <mxGeometry y="26" width="140" height="54" as="geometry" />
        </mxCell>
        <mxCell id="piKvXbmp4SoKNcqQ3Z4D-26" value="LocationRecomendation" style="swimlane;fontStyle=0;childLayout=stackLayout;horizontal=1;startSize=26;fillColor=none;horizontalStack=0;resizeParent=1;resizeParentMax=0;resizeLast=0;collapsible=1;marginBottom=0;whiteSpace=wrap;html=1;" vertex="1" parent="1">
          <mxGeometry x="540" y="532" width="140" height="90" as="geometry" />
        </mxCell>
        <mxCell id="piKvXbmp4SoKNcqQ3Z4D-27" value="+getLocation()" style="text;strokeColor=none;fillColor=none;align=left;verticalAlign=top;spacingLeft=4;spacingRight=4;overflow=hidden;rotatable=0;points=[[0,0.5],[1,0.5]];portConstraint=eastwest;whiteSpace=wrap;html=1;" vertex="1" parent="piKvXbmp4SoKNcqQ3Z4D-26">
          <mxGeometry y="26" width="140" height="64" as="geometry" />
        </mxCell>
        <mxCell id="piKvXbmp4SoKNcqQ3Z4D-28" value="HotelRecomendation" style="swimlane;fontStyle=0;childLayout=stackLayout;horizontal=1;startSize=26;fillColor=none;horizontalStack=0;resizeParent=1;resizeParentMax=0;resizeLast=0;collapsible=1;marginBottom=0;whiteSpace=wrap;html=1;" vertex="1" parent="1">
          <mxGeometry x="285" y="540" width="140" height="80" as="geometry" />
        </mxCell>
        <mxCell id="piKvXbmp4SoKNcqQ3Z4D-29" value="+getAvailablehotels()&lt;div&gt;+getprices()&lt;/div&gt;" style="text;strokeColor=none;fillColor=none;align=left;verticalAlign=top;spacingLeft=4;spacingRight=4;overflow=hidden;rotatable=0;points=[[0,0.5],[1,0.5]];portConstraint=eastwest;whiteSpace=wrap;html=1;" vertex="1" parent="piKvXbmp4SoKNcqQ3Z4D-28">
          <mxGeometry y="26" width="140" height="54" as="geometry" />
        </mxCell>
        <mxCell id="piKvXbmp4SoKNcqQ3Z4D-35" value="" style="endArrow=block;dashed=1;endFill=0;endSize=12;html=1;rounded=0;entryX=0.458;entryY=1.068;entryDx=0;entryDy=0;entryPerimeter=0;" edge="1" parent="1" target="piKvXbmp4SoKNcqQ3Z4D-11">
          <mxGeometry width="160" relative="1" as="geometry">
            <mxPoint x="353" y="380" as="sourcePoint" />
            <mxPoint x="480" y="220" as="targetPoint" />
          </mxGeometry>
        </mxCell>
        <mxCell id="piKvXbmp4SoKNcqQ3Z4D-37" value="1" style="edgeLabel;html=1;align=center;verticalAlign=middle;resizable=0;points=[];" vertex="1" connectable="0" parent="piKvXbmp4SoKNcqQ3Z4D-35">
          <mxGeometry x="-0.2458" y="3" relative="1" as="geometry">
            <mxPoint as="offset" />
          </mxGeometry>
        </mxCell>
        <mxCell id="piKvXbmp4SoKNcqQ3Z4D-38" value="" style="endArrow=block;endSize=16;endFill=0;html=1;rounded=0;exitX=0.407;exitY=0.032;exitDx=0;exitDy=0;exitPerimeter=0;entryX=0.414;entryY=1.141;entryDx=0;entryDy=0;entryPerimeter=0;" edge="1" parent="1" source="piKvXbmp4SoKNcqQ3Z4D-5" target="piKvXbmp4SoKNcqQ3Z4D-3">
          <mxGeometry width="160" relative="1" as="geometry">
            <mxPoint x="320" y="220" as="sourcePoint" />
            <mxPoint x="480" y="220" as="targetPoint" />
          </mxGeometry>
        </mxCell>
        <mxCell id="piKvXbmp4SoKNcqQ3Z4D-41" value="" style="endArrow=block;endSize=16;endFill=0;html=1;rounded=0;exitX=0.567;exitY=0.019;exitDx=0;exitDy=0;exitPerimeter=0;entryX=0.49;entryY=1.192;entryDx=0;entryDy=0;entryPerimeter=0;" edge="1" parent="1" source="piKvXbmp4SoKNcqQ3Z4D-22" target="piKvXbmp4SoKNcqQ3Z4D-21">
          <mxGeometry width="160" relative="1" as="geometry">
            <mxPoint x="150" y="460" as="sourcePoint" />
            <mxPoint x="310" y="460" as="targetPoint" />
          </mxGeometry>
        </mxCell>
        <mxCell id="piKvXbmp4SoKNcqQ3Z4D-42" value="" style="endArrow=open;endFill=1;endSize=12;html=1;rounded=0;entryX=0.5;entryY=0;entryDx=0;entryDy=0;exitX=0.562;exitY=0.994;exitDx=0;exitDy=0;exitPerimeter=0;" edge="1" parent="1" source="piKvXbmp4SoKNcqQ3Z4D-25" target="piKvXbmp4SoKNcqQ3Z4D-26">
          <mxGeometry width="160" relative="1" as="geometry">
            <mxPoint x="320" y="400" as="sourcePoint" />
            <mxPoint x="480" y="400" as="targetPoint" />
          </mxGeometry>
        </mxCell>
        <mxCell id="piKvXbmp4SoKNcqQ3Z4D-43" value="" style="endArrow=open;endFill=1;endSize=12;html=1;rounded=0;entryX=0.898;entryY=-0.037;entryDx=0;entryDy=0;entryPerimeter=0;edgeStyle=orthogonalEdgeStyle;" edge="1" parent="1" target="piKvXbmp4SoKNcqQ3Z4D-28">
          <mxGeometry width="160" relative="1" as="geometry">
            <mxPoint x="610" y="490" as="sourcePoint" />
            <mxPoint x="505" y="490" as="targetPoint" />
          </mxGeometry>
        </mxCell>
        <mxCell id="piKvXbmp4SoKNcqQ3Z4D-49" value="" style="endArrow=none;html=1;edgeStyle=orthogonalEdgeStyle;rounded=0;exitX=0.712;exitY=1.068;exitDx=0;exitDy=0;exitPerimeter=0;entryX=0.5;entryY=0.995;entryDx=0;entryDy=0;entryPerimeter=0;" edge="1" parent="1" source="piKvXbmp4SoKNcqQ3Z4D-29" target="piKvXbmp4SoKNcqQ3Z4D-27">
          <mxGeometry relative="1" as="geometry">
            <mxPoint x="420" y="690" as="sourcePoint" />
            <mxPoint x="580" y="690" as="targetPoint" />
            <Array as="points">
              <mxPoint x="385" y="650" />
              <mxPoint x="610" y="650" />
            </Array>
          </mxGeometry>
        </mxCell>
        <mxCell id="piKvXbmp4SoKNcqQ3Z4D-53" value="extend" style="edgeLabel;html=1;align=center;verticalAlign=middle;resizable=0;points=[];" vertex="1" connectable="0" parent="piKvXbmp4SoKNcqQ3Z4D-49">
          <mxGeometry x="-0.1954" y="4" relative="1" as="geometry">
            <mxPoint as="offset" />
          </mxGeometry>
        </mxCell>
        <mxCell id="piKvXbmp4SoKNcqQ3Z4D-52" value="" style="endArrow=none;html=1;rounded=0;exitX=0.969;exitY=0.105;exitDx=0;exitDy=0;exitPerimeter=0;entryX=0;entryY=0.25;entryDx=0;entryDy=0;" edge="1" parent="1" source="piKvXbmp4SoKNcqQ3Z4D-19" target="piKvXbmp4SoKNcqQ3Z4D-24">
          <mxGeometry relative="1" as="geometry">
            <mxPoint x="430" y="700" as="sourcePoint" />
            <mxPoint x="590" y="700" as="targetPoint" />
          </mxGeometry>
        </mxCell>
        <mxCell id="piKvXbmp4SoKNcqQ3Z4D-54" value="extends" style="edgeLabel;html=1;align=center;verticalAlign=middle;resizable=0;points=[];" vertex="1" connectable="0" parent="piKvXbmp4SoKNcqQ3Z4D-52">
          <mxGeometry x="0.0472" y="4" relative="1" as="geometry">
            <mxPoint as="offset" />
          </mxGeometry>
        </mxCell>
        <mxCell id="piKvXbmp4SoKNcqQ3Z4D-55" value="" style="endArrow=none;html=1;rounded=0;entryX=0.5;entryY=0;entryDx=0;entryDy=0;" edge="1" parent="1" target="piKvXbmp4SoKNcqQ3Z4D-10">
          <mxGeometry relative="1" as="geometry">
            <mxPoint x="365" y="203" as="sourcePoint" />
            <mxPoint x="570" y="210" as="targetPoint" />
          </mxGeometry>
        </mxCell>
        <mxCell id="piKvXbmp4SoKNcqQ3Z4D-58" value="1&lt;div&gt;&lt;br&gt;&lt;/div&gt;" style="text;html=1;align=center;verticalAlign=middle;resizable=0;points=[];autosize=1;strokeColor=none;fillColor=none;" vertex="1" parent="1">
          <mxGeometry x="365" y="193" width="30" height="40" as="geometry" />
        </mxCell>
      </root>
    </mxGraphModel>
  </diagram>
</mxfile>
